<?xml version="1.0" standalone="no"?>
<!DOCTYPE svg PUBLIC "-//W3C//DTD SVG 20010904//EN"
 "http://www.w3.org/TR/2001/REC-SVG-20010904/DTD/svg10.dtd">
<svg version="1.0" xmlns="http://www.w3.org/2000/svg"
 width="512.000000pt" height="512.000000pt" viewBox="0 0 512.000000 512.000000"
 preserveAspectRatio="xMidYMid meet">
<metadata>
Created by potrace 1.11, written by Peter Selinger 2001-2013
</metadata>
<g transform="translate(0.000000,512.000000) scale(0.100000,-0.100000)"
fill="#000000" stroke="none">
<path d="M2369 5116 c-2 -2 -35 -7 -74 -10 -38 -3 -81 -8 -95 -11 -83 -14
-148 -26 -170 -31 -14 -3 -36 -7 -50 -10 -51 -10 -237 -66 -305 -91 -403 -150
-783 -414 -1045 -723 -30 -36 -57 -67 -60 -70 -55 -50 -254 -363 -312 -490
-63 -137 -79 -175 -106 -250 -70 -197 -113 -381 -140 -605 -9 -79 -9 -454 1
-530 13 -111 17 -140 23 -165 2 -14 9 -47 14 -75 43 -239 185 -608 304 -795
13 -19 43 -66 67 -105 251 -397 671 -749 1134 -950 22 -9 49 -21 60 -26 39
-16 253 -87 281 -93 16 -3 79 -16 139 -30 107 -23 144 -29 270 -44 84 -9 425
-9 515 1 116 13 120 14 210 32 47 9 96 19 110 21 124 23 387 117 534 190 345
171 601 372 860 674 136 159 287 407 378 620 40 94 97 252 104 287 2 12 9 34
14 48 5 14 12 39 15 55 3 17 12 58 20 93 18 80 28 142 42 262 4 33 7 150 7
260 1 177 -3 251 -19 373 -5 33 -6 40 -25 132 -6 30 -14 66 -16 80 -3 14 -11
45 -18 70 -7 25 -14 48 -15 53 0 4 -1 8 -2 10 0 1 -2 9 -4 17 -2 8 -18 56 -35
105 -166 467 -435 850 -809 1153 -57 47 -120 94 -138 104 -18 11 -33 24 -33
29 0 5 -5 9 -11 9 -7 0 -43 20 -80 45 -74 48 -289 159 -379 195 -142 57 -380
128 -490 146 -14 2 -38 6 -55 9 -16 3 -50 8 -75 11 -25 3 -56 8 -70 11 -28 6
-466 14 -471 9z m48 -714 l0 -419 -478 0 c-299 0 -479 3 -479 9 0 36 162 286
262 405 71 84 229 233 248 233 4 0 20 11 36 25 66 57 315 162 390 164 l21 1 0
-418z m393 397 c125 -34 296 -126 402 -216 70 -59 189 -185 246 -260 57 -76
172 -254 172 -268 0 -4 9 -20 21 -36 15 -22 17 -30 7 -33 -7 -3 -224 -4 -483
-3 l-470 2 -1 418 c-1 381 0 417 15 417 9 0 50 -9 91 -21z m905 -279 c10 0
188 -124 260 -180 90 -71 358 -338 350 -349 -2 -5 -81 -8 -174 -8 l-170 -1
-48 96 c-86 173 -229 395 -310 480 -23 24 -14 22 37 -8 28 -17 53 -30 55 -30z
m-2237 18 c-12 -18 -33 -44 -45 -58 -13 -14 -23 -28 -23 -32 0 -3 -6 -13 -13
-20 -15 -16 -96 -140 -123 -188 -10 -19 -21 -37 -24 -40 -3 -3 -30 -53 -59
-111 l-53 -106 -174 0 -173 0 11 21 c24 45 298 305 398 378 105 76 278 186
293 187 5 1 -2 -14 -15 -31z m-451 -857 c-3 -9 -19 -65 -37 -125 -17 -60 -34
-119 -36 -130 -2 -12 -6 -32 -9 -46 -3 -14 -8 -36 -11 -50 -8 -39 -13 -66 -24
-128 -17 -104 -19 -117 -24 -162 -2 -25 -7 -73 -11 -106 -8 -70 -13 -131 -14
-190 l-1 -41 -282 1 -283 1 1 35 c1 32 8 98 19 175 30 223 135 531 252 741
l23 41 221 0 c195 -1 220 -2 216 -16z m1389 -483 l1 -496 -636 1 -636 2 1 45
c1 90 38 422 49 439 2 4 6 27 10 51 3 25 13 70 20 101 8 30 16 64 18 75 4 24
43 155 63 214 9 25 17 50 19 56 2 8 156 11 547 10 l543 -1 1 -497z m1401 422
c52 -158 113 -422 129 -560 3 -25 7 -56 9 -70 5 -25 14 -140 19 -236 l3 -51
-636 1 -636 1 -1 496 -1 497 545 -2 545 -1 24 -75z m712 70 c25 -15 149 -290
192 -425 18 -56 57 -201 64 -235 1 -8 6 -33 10 -55 13 -71 26 -175 29 -235 l1
-35 -278 -1 c-153 0 -280 2 -282 6 -3 4 -7 52 -10 106 -4 55 -8 113 -9 129 -2
17 -7 57 -10 90 -4 33 -9 67 -11 75 -2 8 -7 35 -10 60 -16 118 -76 373 -110
469 -8 24 -15 47 -15 51 0 9 425 9 439 0z m-3674 -1280 c2 -4 7 -45 10 -91 7
-119 13 -188 20 -234 28 -187 38 -245 51 -303 27 -121 43 -186 68 -266 14 -44
23 -83 21 -86 -2 -4 -101 -7 -219 -7 l-214 0 -20 36 c-45 81 -59 109 -84 166
-24 55 -49 112 -53 125 -1 3 -5 12 -8 20 -28 68 -91 302 -102 380 -4 25 -10
65 -15 90 -4 25 -8 52 -8 60 -1 8 -3 38 -7 66 l-6 51 281 1 c154 0 282 -3 285
-8z m1561 -491 l1 -496 -543 0 -543 0 -14 36 c-12 30 -29 82 -43 136 -1 6 -12
42 -23 80 -20 73 -65 294 -77 380 -3 28 -8 57 -9 66 -9 47 -24 280 -19 290 2
4 288 6 636 5 l633 -1 1 -496z m1558 456 c-3 -150 -30 -358 -70 -545 -27 -130
-25 -120 -52 -215 -53 -182 -54 -185 -76 -190 -12 -2 -257 -3 -546 -2 l-525 2
-1 496 -1 496 636 -1 636 -1 -1 -40z m849 -5 c-1 -53 -10 -116 -28 -220 -16
-89 -22 -114 -53 -230 -33 -123 -139 -374 -194 -461 l-23 -36 -217 0 c-120 -1
-218 1 -218 3 0 3 14 50 30 106 17 56 33 115 36 132 3 16 7 32 9 36 2 3 7 20
10 36 15 72 44 233 50 274 13 101 16 119 20 161 4 35 13 163 18 235 0 8 84 11
281 10 l281 -1 -2 -45z m-3628 -1342 c87 -171 208 -360 289 -452 14 -16 26
-30 26 -32 0 -5 -130 71 -177 103 -17 13 -34 23 -38 23 -3 0 -11 5 -18 10 -7
6 -41 32 -77 58 -36 26 -81 60 -100 77 -57 48 -288 282 -299 303 -10 19 -5 20
164 19 l174 0 56 -109z m1220 -308 l0 -415 -35 2 c-51 2 -164 42 -258 90 -240
124 -466 362 -630 664 l-41 76 482 -1 482 -1 0 -415z m1234 378 c-35 -68 -144
-245 -160 -258 -3 -3 -10 -12 -15 -22 -15 -27 -95 -119 -168 -192 -143 -144
-331 -259 -497 -305 -41 -12 -82 -21 -91 -21 -14 0 -15 46 -15 419 l0 419 483
0 483 0 -20 -40z m669 19 c-23 -43 -288 -298 -384 -369 -104 -77 -303 -202
-310 -195 -3 2 19 33 47 68 28 35 56 73 61 84 6 11 14 22 17 25 23 19 131 203
189 321 l42 87 175 0 c172 -1 174 -1 163 -21z"/>
</g>
</svg>
